<svg width="1415" height="563" viewBox="0 0 1415 563" fill="none" xmlns="http://www.w3.org/2000/svg">
<path d="M344 124H108C88.67 124 73 139.67 73 159V395C73 414.33 88.67 430 108 430H344C363.33 430 379 414.33 379 395V159C379 139.67 363.33 124 344 124Z" fill="#6F49FD"/>
<path d="M155.6 282.5C155.6 250.3 163.3 224 178.7 203.6C194.1 183.2 213.7 173 237.5 173C251.5 173 265.9 176.7 280.7 184.1C281.3 184.1 282 182.4 282.8 179C283.6 175.6 285 173.6 287 173C295.8 171.4 303 170.6 308.6 170.6C316.8 170.6 323 172.3 327.2 175.7C328.6 181.3 329.3 187.6 329.3 194.6C329.3 209 327.2 222.1 323 233.9C322 235.9 315.4 236.9 303.2 236.9C296.6 236.9 291.5 236 287.9 234.2C286.1 232.8 285.2 230.9 285.2 228.5C285.2 227.3 285.7 225.2 286.7 222.2C272.7 213 259.7 208.4 247.7 208.4C232.5 208.4 220.1 215.4 210.5 229.4C201.1 243.2 196.4 260.6 196.4 281.6C196.4 304.4 201.7 321.6 212.3 333.2C223.1 344.8 235.5 350.6 249.5 350.6C262.5 350.6 274.6 345.3 285.8 334.7C288.2 328.5 289.4 321.6 289.4 314C289.4 306.8 288.2 300.2 285.8 294.2C282.2 294.2 275.9 293.8 266.9 293C257.9 292 253.3 290.7 253.1 289.1C251.7 286.3 251 283.3 251 280.1C251 275.9 252 272.4 254 269.6C258.2 263.4 267.3 260.3 281.3 260.3C288.7 260.3 296.7 261.3 305.3 263.3C313.9 265.1 320 267.5 323.6 270.5C325.4 274.7 327.1 283.4 328.7 296.6C330.3 309.8 331.1 323.8 331.1 338.6C331.1 356.2 329.9 371.1 327.5 383.3C323.1 386.5 318.2 388.1 312.8 388.1C307.8 388.1 301.7 386.9 294.5 384.5C291.3 383.3 289.7 377.9 289.7 368.3C269.7 381.3 252.5 387.8 238.1 387.8C231.7 387.8 224.9 386.8 217.7 384.8C210.7 382.6 203.4 378.9 195.8 373.7C188.4 368.3 181.7 361.8 175.7 354.2C169.9 346.4 165.1 336.3 161.3 323.9C157.5 311.5 155.6 297.7 155.6 282.5Z" fill="white"/>
<path d="M400.306 267.5C400.306 253.7 401.306 245.2 403.306 242C418.306 238 431.306 236 442.306 236C450.106 236 459.106 237.8 469.306 241.4C470.706 242.4 472.206 246 473.806 252.2C475.406 258.2 476.206 263.4 476.206 267.8C476.206 274.4 474.406 280.1 470.806 284.9C468.606 286.3 465.706 287 462.106 287C459.306 287 456.606 286.5 454.006 285.5C454.006 286.1 453.906 288.7 453.706 293.3C453.706 297.9 453.706 300.8 453.706 302C453.706 314.6 457.106 325.7 463.906 335.3C470.906 344.7 479.606 349.4 490.006 349.4C499.006 349.4 507.206 345.8 514.606 338.6C522.206 331.2 526.006 319.7 526.006 304.1C526.006 298.5 525.706 291.2 525.106 282.2C522.706 283.6 519.606 284.3 515.806 284.3C512.206 284.3 510.006 283.8 509.206 282.8C507.206 282.8 506.206 278.8 506.206 270.8C506.206 269 507.206 260.8 509.206 246.2C523.606 239.2 542.206 235.7 565.006 235.7C582.206 235.7 593.206 238.6 598.006 244.4C599.806 246.8 600.706 251 600.706 257C600.706 269.4 598.006 277.1 592.606 280.1C585.406 281.9 579.406 282.8 574.606 282.8C571.806 282.8 569.406 282.6 567.406 282.2C567.406 288 567.606 297.4 568.006 310.4C568.406 323.2 568.606 332.9 568.606 339.5C569.406 339.5 572.706 339.3 578.506 338.9C584.306 338.3 587.706 338 588.706 338C589.506 338 590.706 338.2 592.306 338.6C593.906 339 595.106 339.2 595.906 339.2C596.706 340 597.106 342.1 597.106 345.5C597.106 350.9 596.306 357.7 594.706 365.9C593.106 373.9 591.606 378.8 590.206 380.6C584.206 384.2 572.806 386 556.006 386C545.206 386 538.006 385.3 534.406 383.9C530.806 382.5 529.006 379.4 529.006 374.6C529.006 368.6 529.506 362.6 530.506 356.6C511.706 378.2 491.406 389 469.606 389C435.206 389 418.006 364.8 418.006 316.4C418.006 306.8 418.606 297.4 419.806 288.2C419.606 288.4 418.706 288.5 417.106 288.5C414.106 288.5 409.406 288 403.006 287C401.206 285 400.306 278.5 400.306 267.5ZM608.389 194.3C608.389 179.1 609.689 169.8 612.289 166.4C618.089 162.8 630.789 161 650.389 161C656.189 161 662.789 161.3 670.189 161.9C677.589 162.5 681.489 163 681.889 163.4C683.889 166.8 684.889 189.6 684.889 231.8C684.889 245 684.589 252.4 683.989 254C702.589 240 721.889 233 741.889 233C758.689 233 772.289 238.5 782.689 249.5C793.289 260.5 798.589 277.8 798.589 301.4C798.589 320.6 797.989 332.5 796.789 337.1C797.189 336.7 798.189 336.5 799.789 336.5C804.989 336.5 809.589 337 813.589 338C815.389 340 816.289 345.5 816.289 354.5C816.289 368.3 815.289 376.8 813.289 380C798.289 384 784.589 386 772.189 386C760.389 386 749.389 384.2 739.189 380.6C737.789 379.6 736.289 376.1 734.689 370.1C733.089 363.9 732.289 358.7 732.289 354.5C732.289 350.7 734.089 346.4 737.689 341.6C739.889 340.2 742.789 339.5 746.389 339.5C749.189 339.5 751.889 340 754.489 341C754.489 340.4 754.489 335.1 754.489 325.1C754.689 314.9 754.789 309.2 754.789 308C754.789 295.8 751.389 285.4 744.589 276.8C737.789 268 728.989 263.6 718.189 263.6C698.389 263.6 688.489 280.3 688.489 313.7C688.489 317.5 688.789 327.2 689.389 342.8C691.789 341.4 694.889 340.7 698.689 340.7C702.289 340.7 704.489 341.2 705.289 342.2C707.289 342.2 708.289 346.2 708.289 354.2C708.289 356.2 708.189 357.8 707.989 359L706.789 365.3C706.389 368.3 705.889 371.8 705.289 375.8C689.889 382.6 669.889 386 645.289 386C628.289 386 617.689 383.2 613.489 377.6C611.689 375.2 610.789 371.7 610.789 367.1C610.789 350.1 618.989 341.6 635.389 341.6C639.789 341.6 643.689 342 647.089 342.8C646.089 296.8 645.589 256.7 645.589 222.5C645.589 210.5 645.789 203.9 646.189 202.7C645.389 202.7 644.189 202.8 642.589 203C640.989 203 639.489 203 638.089 203C624.689 203 615.189 202.6 609.589 201.8C608.789 201 608.389 198.5 608.389 194.3ZM830.328 323.9C830.328 309.5 832.428 295.6 836.628 282.2C841.028 268.6 847.928 256.9 857.328 247.1C866.928 237.3 878.128 232.4 890.928 232.4C896.728 232.4 901.828 233.4 906.228 235.4C910.828 237.4 914.328 239.9 916.728 242.9C919.328 245.7 921.428 248.6 923.028 251.6C924.628 254.4 925.728 256.8 926.328 258.8C926.928 260.8 927.328 261.8 927.528 261.8C927.528 251 927.428 243.9 927.228 240.5C931.228 237.1 935.328 234.9 939.528 233.9C943.928 232.7 949.928 232.1 957.528 232.1C963.528 232.1 968.828 232.3 973.428 232.7C978.228 233.1 981.828 233.6 984.228 234.2C986.628 234.8 988.528 235.4 989.928 236C991.528 236.6 992.528 237 992.928 237.2L993.528 237.5C994.328 239.3 994.728 244.9 994.728 254.3C994.728 263.9 994.328 269.6 993.528 271.4C992.928 272.8 989.728 274.1 983.928 275.3C978.128 276.3 973.128 276.8 968.928 276.8C966.928 276.8 964.728 276.6 962.328 276.2C962.928 277.4 963.228 282.5 963.228 291.5C963.228 317.7 962.328 332.2 960.528 335C961.928 334.4 963.628 334.1 965.628 334.1C974.428 334.1 983.028 335 991.428 336.8C993.028 338 993.828 346.5 993.828 362.3C993.828 371.1 993.528 376.7 992.928 379.1C991.528 381.3 987.128 383.4 979.728 385.4C972.328 387.4 963.928 388.4 954.528 388.4C937.528 388.4 927.028 388 923.028 387.2C921.628 383.4 920.928 380.2 920.928 377.6C920.928 376 921.228 374.8 921.828 374C919.428 374.8 912.628 377.8 901.428 383C890.228 388.2 882.128 390.8 877.128 390.8C861.728 390.8 850.028 384.3 842.028 371.3C834.228 358.3 830.328 342.5 830.328 323.9ZM867.828 316.1C867.828 327.3 871.228 336.8 878.028 344.6C885.028 352.2 892.328 356 899.928 356C904.128 356 908.928 354.9 914.328 352.7C919.728 350.5 922.628 348.5 923.028 346.7C923.628 337.5 924.128 329.1 924.528 321.5C925.128 313.7 925.528 307.8 925.728 303.8C926.128 299.6 926.328 296.9 926.328 295.7V292.1C926.328 287.9 923.528 283.8 917.928 279.8C912.528 275.6 906.428 273.5 899.628 273.5C889.628 273.5 881.828 278.1 876.228 287.3C870.628 296.3 867.828 305.9 867.828 316.1ZM1014.24 323.9C1014.24 309.5 1016.34 295.6 1020.54 282.2C1024.94 268.6 1031.84 256.9 1041.24 247.1C1050.84 237.3 1062.04 232.4 1074.84 232.4C1080.64 232.4 1085.74 233.4 1090.14 235.4C1094.74 237.4 1098.24 239.9 1100.64 242.9C1103.24 245.7 1105.34 248.6 1106.94 251.6C1108.54 254.4 1109.64 256.8 1110.24 258.8C1110.84 260.8 1111.24 261.8 1111.44 261.8C1111.44 251 1111.34 243.9 1111.14 240.5C1115.14 237.1 1119.24 234.9 1123.44 233.9C1127.84 232.7 1133.84 232.1 1141.44 232.1C1147.44 232.1 1152.74 232.3 1157.34 232.7C1162.14 233.1 1165.74 233.6 1168.14 234.2C1170.54 234.8 1172.44 235.4 1173.84 236C1175.44 236.6 1176.44 237 1176.84 237.2L1177.44 237.5C1178.24 239.3 1178.64 244.9 1178.64 254.3C1178.64 263.9 1178.24 269.6 1177.44 271.4C1176.84 272.8 1173.64 274.1 1167.84 275.3C1162.04 276.3 1157.04 276.8 1152.84 276.8C1150.84 276.8 1148.64 276.6 1146.24 276.2C1146.84 277.4 1147.14 282.5 1147.14 291.5C1147.14 317.7 1146.24 332.2 1144.44 335C1145.84 334.4 1147.54 334.1 1149.54 334.1C1158.34 334.1 1166.94 335 1175.34 336.8C1176.94 338 1177.74 346.5 1177.74 362.3C1177.74 371.1 1177.44 376.7 1176.84 379.1C1175.44 381.3 1171.04 383.4 1163.64 385.4C1156.24 387.4 1147.84 388.4 1138.44 388.4C1121.44 388.4 1110.94 388 1106.94 387.2C1105.54 383.4 1104.84 380.2 1104.84 377.6C1104.84 376 1105.14 374.8 1105.74 374C1103.34 374.8 1096.54 377.8 1085.34 383C1074.14 388.2 1066.04 390.8 1061.04 390.8C1045.64 390.8 1033.94 384.3 1025.94 371.3C1018.14 358.3 1014.24 342.5 1014.24 323.9ZM1051.74 316.1C1051.74 327.3 1055.14 336.8 1061.94 344.6C1068.94 352.2 1076.24 356 1083.84 356C1088.04 356 1092.84 354.9 1098.24 352.7C1103.64 350.5 1106.54 348.5 1106.94 346.7C1107.54 337.5 1108.04 329.1 1108.44 321.5C1109.04 313.7 1109.44 307.8 1109.64 303.8C1110.04 299.6 1110.24 296.9 1110.24 295.7V292.1C1110.24 287.9 1107.44 283.8 1101.84 279.8C1096.44 275.6 1090.34 273.5 1083.54 273.5C1073.54 273.5 1065.74 278.1 1060.14 287.3C1054.54 296.3 1051.74 305.9 1051.74 316.1ZM1199.66 254.9C1199.66 246.7 1200.26 240.9 1201.46 237.5C1212.86 234.1 1223.96 232.4 1234.76 232.4C1247.76 232.4 1257.76 235.1 1264.76 240.5C1264.56 243.9 1264.46 249 1264.46 255.8L1265.66 253.4C1266.26 251.8 1267.36 249.9 1268.96 247.7C1270.76 245.3 1272.86 243 1275.26 240.8C1277.66 238.4 1281.06 236.4 1285.46 234.8C1289.86 233.2 1294.76 232.4 1300.16 232.4C1315.36 232.4 1328.26 238.9 1338.86 251.9C1337.46 260.7 1333.96 267.4 1328.36 272C1322.76 276.6 1317.16 279.1 1311.56 279.5C1304.16 274.3 1297.06 271.7 1290.26 271.7C1270.46 271.7 1260.56 284.3 1260.56 309.5C1260.56 318.1 1261.66 327.5 1263.86 337.7C1264.26 336.7 1267.06 336.2 1272.26 336.2C1278.26 336.2 1281.96 336.9 1283.36 338.3C1285.76 342.1 1286.96 348.3 1286.96 356.9C1286.96 369.9 1284.66 378.4 1280.06 382.4C1269.86 384.6 1257.56 385.7 1243.16 385.7C1219.56 385.7 1205.86 383.5 1202.06 379.1C1201.46 376.7 1201.16 370.6 1201.16 360.8C1201.16 346.8 1201.76 339.3 1202.96 338.3C1204.36 336.5 1208.26 335.6 1214.66 335.6C1219.26 335.6 1222.66 336.3 1224.86 337.7C1223.06 333.1 1222.16 317.6 1222.16 291.2C1222.16 282.4 1222.46 277.4 1223.06 276.2C1220.66 276.6 1218.46 276.8 1216.46 276.8C1209.26 276.8 1204.26 275 1201.46 271.4C1200.26 268.4 1199.66 262.9 1199.66 254.9Z" fill="#6F49FD"/>
</svg>
