<svg width="600" height="600" viewBox="0 0 600 600" fill="none" xmlns="http://www.w3.org/2000/svg">
<path d="M465.703 76.804H133.297C106.071 76.804 84 98.8752 84 126.101V458.507C84 485.733 106.071 507.804 133.297 507.804H465.703C492.929 507.804 515 485.733 515 458.507V126.101C515 98.8752 492.929 76.804 465.703 76.804Z" fill="#6F49FD"/>
<path d="M200.342 300.221C200.342 254.867 211.187 217.824 232.878 189.09C254.569 160.357 282.176 145.99 315.698 145.99C335.417 145.99 355.699 151.202 376.545 161.624C377.39 161.624 378.376 159.23 379.503 154.441C380.629 149.652 382.601 146.835 385.418 145.99C397.813 143.737 407.954 142.61 415.842 142.61C427.392 142.61 436.124 145.004 442.04 149.793C444.012 157.681 444.998 166.554 444.998 176.414C444.998 196.696 442.04 215.147 436.124 231.768C434.716 234.585 425.42 235.993 408.236 235.993C398.94 235.993 391.757 234.725 386.686 232.19C384.151 230.218 382.883 227.542 382.883 224.162C382.883 222.472 383.587 219.514 384.996 215.288C365.277 202.33 346.966 195.851 330.064 195.851C308.655 195.851 291.19 205.71 277.668 225.429C264.428 244.867 257.809 269.375 257.809 298.953C257.809 331.067 265.274 355.293 280.204 371.631C295.415 387.97 312.881 396.139 332.6 396.139C350.91 396.139 367.953 388.674 383.728 373.744C387.109 365.011 388.799 355.293 388.799 344.588C388.799 334.447 387.109 325.151 383.728 316.7C378.658 316.7 369.784 316.137 357.108 315.01C344.431 313.601 337.952 311.77 337.67 309.517C335.698 305.573 334.712 301.347 334.712 296.84C334.712 290.925 336.121 285.995 338.938 282.051C344.854 273.318 357.671 268.952 377.39 268.952C387.813 268.952 399.081 270.36 411.194 273.177C423.307 275.713 431.899 279.093 436.969 283.319C439.505 289.234 441.899 301.488 444.153 320.08C446.406 338.673 447.533 358.392 447.533 379.237C447.533 404.027 445.843 425.013 442.462 442.197C436.265 446.704 429.363 448.958 421.758 448.958C414.715 448.958 406.123 447.268 395.982 443.887C391.475 442.197 389.221 434.591 389.221 421.07C361.051 439.38 336.825 448.535 316.543 448.535C307.528 448.535 297.951 447.127 287.809 444.31C277.95 441.211 267.668 436 256.963 428.675C246.541 421.07 237.104 411.914 228.653 401.21C220.483 390.224 213.723 375.998 208.37 358.532C203.018 341.067 200.342 321.63 200.342 300.221Z" fill="white"/>
</svg>
